<?xml version="1.0" encoding="UTF-8"?>
<svg width="133px" height="119px" viewBox="0 0 133 119" version="1.1" xmlns="http://www.w3.org/2000/svg" xmlns:xlink="http://www.w3.org/1999/xlink">
    <title>编组</title>
    <g id="页面-1" stroke="none" stroke-width="1" fill="none" fill-rule="evenodd" stroke-linecap="round" stroke-linejoin="bevel">
        <g id="taicode" transform="translate(-182, -123)" fill="#FFFF00" fill-rule="nonzero" stroke="#000000">
            <g id="形状" transform="translate(185.4926, 126.5582)">
                <g stroke-width="3.08176471">
                    <g>
                        <path d="M83.4548116,-1.60039225 L101.271293,59.915268 L76.5480258,63.1087335 L73.8978764,53.1011765 L66.3918758,53.1011765 L64.1848654,63.0742779 L38.753145,60.5791296 L56.9328973,-0.262313739 L83.4548116,-1.60039225 Z M70.2247897,30.3887933 L68.8816468,36.6985294 L71.6020803,36.6985294 L70.2247897,30.3887933 Z M49.5731873,-1.4618567 L49.0638544,20.0362375 L36.0008939,20.5591228 L32.6925067,61.8273796 L11.3482408,62.9396119 L11.4302931,21.658161 L-1.58254521,22.3622991 L-0.982792387,-1.36476437 L49.5731873,-1.4618567 Z M125.404014,-0.592077198 L120.367086,61.8274517 L99.0176471,62.9394017 L99.0176471,0.799411664 L125.404014,-0.592077198 Z"></path>
                    </g>
                </g>
                <g transform="translate(0, 69.4309)" stroke-width="3.05362819">
                    <g>
                        <path d="M125.361851,-1.09316276 C125.201595,1.16463463 125.06218,3.39622539 124.943575,5.60228259 C124.8752,6.86950098 124.791444,8.14868528 124.691858,9.44546704 L124.481163,12.062456 L112.892673,12.6585904 L120.982482,13.1269875 L120.174608,24.6085905 L111.974801,24.8795092 L111.907879,25.8654956 L123.475176,25.8654956 C123.341709,28.4201584 123.198556,30.9507485 123.045755,33.4566945 C122.965761,34.7725925 122.892433,36.0884906 122.825962,37.4005354 L122.662271,40.8018595 L96.0728434,41.4235365 L97.0178754,-1.09316276 Z M78.3032187,-0.605304106 C81.1024728,-0.606017941 83.6740293,-0.177711604 86.0163666,0.66759955 C88.4072077,1.52382363 90.4660718,2.76250009 92.1957228,4.37377563 C93.9440647,5.99628994 95.3055679,7.97739505 96.2713038,10.3189856 C97.1665736,12.4749414 97.6512203,14.8971469 97.7100147,17.589027 L97.7161011,18.141602 C97.7168444,20.8719074 97.3600266,23.3301516 96.6588613,25.517271 C95.9493487,27.7369387 94.9569298,29.7074908 93.6861971,31.4343797 C92.4148439,33.1555965 90.8992005,34.6390697 89.1410192,35.8828173 C87.4169389,37.1069784 85.5266548,38.1109244 83.4730927,38.8913999 C81.4455326,39.6683155 79.2918736,40.2440746 77.0109265,40.6168609 C75.0304223,40.9396502 73.004402,41.1212957 70.9328201,41.1613019 L70.060233,41.1697736 C69.1733856,41.1699144 68.302175,41.1449946 67.4465223,41.0951116 C66.8823526,41.0659837 66.3098893,41.0258149 65.7291346,40.9745735 L63.4645065,40.7550706 L64.284513,1.56840365 C66.704323,0.715131271 69.2052409,0.126807628 71.7882385,-0.19606696 C73.6670481,-0.430252853 75.5344428,-0.563863397 77.3904106,-0.597068807 L78.3032187,-0.605304106 Z M80.1065378,13.995992 L79.2616624,27.1020349 C79.4361141,27.0158435 79.6061644,26.921313 79.7717826,26.8183611 C80.5142276,26.3568413 81.1565958,25.7877213 81.6984055,25.1104593 C82.2372719,24.4356162 82.6551144,23.6810947 82.9526903,22.8488909 C83.2586401,21.9932687 83.4195693,21.1079517 83.4511001,19.8708283 C83.4662865,19.023758 83.3771022,18.2098426 83.1807413,17.4295663 C83.0062263,16.7174812 82.7211739,16.0917927 82.3159132,15.546787 C81.9299106,15.0261349 81.4380653,14.6105735 80.8435634,14.2932079 C80.6182152,14.1712265 80.3775949,14.0735784 80.1065378,13.995992 Z M20.5545159,-1.52681291 C21.8898172,-1.52722154 23.2571799,-1.42249488 24.6555138,-1.21178667 C26.3687363,-0.954803301 27.9325347,-0.434052637 29.3491637,0.342840195 L27.9223786,14.9042297 L26.1774821,14.4283488 C25.7295831,14.3061945 25.2817335,14.2218993 24.8320507,14.175908 C24.5217614,14.1438091 24.2102989,14.1222717 23.8976639,14.1112856 L23.3954432,14.1027088 C22.2001318,14.1038073 21.060334,14.2600781 19.976569,14.575064 C18.9489438,14.8737334 18.0406915,15.3257949 17.2518979,15.9415535 C16.487847,16.5341827 15.87994,17.2750861 15.4291815,18.1522959 C15.0170085,18.9676817 14.8044195,19.9139047 14.7678902,20.9846422 C14.7647345,21.9968842 14.853287,22.6405358 15.0873159,23.1788023 C15.2878273,23.6399784 15.5664533,24.0245984 15.9396799,24.3322447 C16.3312727,24.6592892 16.7962607,24.895019 17.3290592,25.0497025 C17.8486349,25.200547 18.4111193,25.2849132 19.0158188,25.307922 C19.9249766,25.312595 20.5352766,25.2523825 21.1686891,25.1267469 C21.8358095,24.9944255 22.4946505,24.8207246 23.1452186,24.6056886 C23.8035059,24.3821591 24.4451584,24.1281426 25.0701221,23.8435131 C25.5731365,23.6097232 26.0440848,23.3725169 26.482807,23.1315793 L28.9047702,21.8014848 L27.9454466,38.051045 C26.9650154,38.6303078 25.8671143,39.1289215 24.6502301,39.5433676 C23.7755027,39.841282 22.8786097,40.1012354 21.949815,40.3253938 C21.0230042,40.5427149 20.0961802,40.7088193 19.1783141,40.8227344 C18.4215182,40.9212216 17.6916571,40.9799925 16.9887803,40.9996896 C13.9060938,41.0077528 11.5607986,40.5276085 9.38411979,39.5928733 C7.1907192,38.6575493 5.28852193,37.3713548 3.67496016,35.7380351 C2.06379733,34.1071438 0.792116958,32.1817681 -0.134648931,29.9601569 C-0.995895831,27.9017157 -1.45969272,25.6932179 -1.52005914,23.3333487 L-1.52681263,22.8128513 C-1.52777971,19.5218089 -1.05223645,16.4221312 -0.107015761,13.5167046 C0.847029216,10.5578759 2.25257673,7.96872137 4.10399609,5.74315107 C5.97954119,3.49640434 8.29932631,1.71902983 11.0701725,0.415105327 C13.6695742,-0.802026283 16.6400412,-1.45437893 19.98679,-1.52111129 Z M45.6208405,1.53585112 C48.466604,1.53460022 51.0609273,1.98093428 53.4075943,2.86255571 C55.7918595,3.76078304 57.8264769,5.04925312 59.5146391,6.71763632 C61.2050319,8.38161672 62.5200432,10.3964014 63.4526873,12.771018 C64.3019143,14.9486787 64.7602642,17.3578448 64.8160469,20.0009774 L64.8218396,20.545001 C64.8224726,22.3365617 64.6173201,24.0629397 64.2067446,25.7312422 C63.7905442,27.3895407 63.1947597,28.9467166 62.4184199,30.4080424 C61.6347023,31.8709819 60.6843333,33.2097464 59.5675437,34.4244999 C58.4453208,35.6451634 57.1852142,36.6951088 55.780281,37.5789364 C54.3764799,38.4513923 52.8517157,39.1313232 51.2051076,39.6167774 C49.7354626,40.0500592 48.1877441,40.2918381 46.5614529,40.3390606 L45.9784913,40.3476404 C44.1833116,40.3486291 42.4774253,40.1170923 40.8673956,39.6589353 C39.2508618,39.207353 37.7393608,38.5685812 36.3368849,37.7466544 C34.9235142,36.9249273 33.6449425,35.932239 32.5011018,34.768677 C31.3582658,33.6061369 30.3861316,32.312282 29.5889485,30.8942948 C28.7859201,29.4840986 28.1616594,27.9697272 27.7172775,26.3490371 C27.320729,24.8969698 27.1001108,23.3930233 27.0568886,21.8369769 L27.0490052,21.2779489 C27.0481271,19.5647469 27.2530604,17.8842269 27.6647948,16.2307974 C28.0812875,14.5843499 28.6805575,13.032509 29.4589605,11.5795096 C30.2356806,10.1174483 31.1789104,8.77619117 32.2827841,7.56196556 C33.391439,6.32866897 34.6347475,5.26615493 36.0151225,4.37220208 C37.4016405,3.47852224 38.8996314,2.7814055 40.5150627,2.28030325 C41.9574136,1.83876725 43.4704259,1.59262605 45.0545545,1.54457395 L45.6208405,1.53585112 Z M45.935994,16.6143549 C45.3292371,16.6177268 44.7843694,16.7200818 44.2960042,16.946777 C43.8174954,17.1646694 43.4061325,17.4623049 43.0641702,17.842738 C42.7173931,18.2328976 42.4511389,18.6945166 42.2662378,19.2184029 C42.0883574,19.7148646 41.997617,20.228887 41.9648681,21.0248225 C41.9676743,21.6379276 42.0595679,22.2507197 42.2411986,22.8742989 C42.4092279,23.4670689 42.6618341,24.0048087 43.0026903,24.4857429 C43.3135461,24.9303832 43.6947474,25.2824504 44.1669407,25.5580028 C44.5504764,25.7874073 44.9965738,25.8873059 45.6656201,25.9195918 C46.2596326,25.9157173 46.7952458,25.8066454 47.2676113,25.5725528 C47.7576664,25.3318136 48.1679176,25.0121786 48.5001549,24.6075305 C48.8618465,24.1680051 49.1356185,23.6647259 49.3308033,23.08859 C49.5083735,22.5765273 49.6017802,22.0472232 49.634944,21.238214 C49.6321836,20.6196822 49.5406626,20.0176006 49.3597335,19.4319615 C49.1867309,18.8765459 48.9348928,18.3758979 48.6003502,17.9359514 C48.2947975,17.5327949 47.9133464,17.209409 47.457518,16.9603916 C47.0597173,16.7410567 46.6093366,16.6447911 45.935994,16.6143549 Z"></path>
                    </g>
                </g>
            </g>
        </g>
    </g>
</svg>